<svg width="100" height="38" viewBox="0 0 100 38" fill="none" xmlns="http://www.w3.org/2000/svg">
<g clip-path="url(#clip0)">
<path d="M6.18883 11.8243C5.6938 10.9744 5.98758 9.88763 6.84505 9.39689L13.8314 5.39853C14.6888 4.90782 15.7852 5.19902 16.2802 6.04896C16.7753 6.89894 16.4815 7.98577 15.624 8.47646L8.63772 12.4749C7.7803 12.9655 6.6839 12.6743 6.18883 11.8243Z" fill="#37D5C7"/>
<path d="M11.1231 33.6212C10.6281 32.7712 10.9218 31.6845 11.7792 31.1937L18.7656 27.1954C19.623 26.7047 20.7194 26.9959 21.2145 27.8458C21.7095 28.6958 21.4158 29.7827 20.5583 30.2733L13.5719 34.2717C12.7145 34.7624 11.6182 34.4712 11.1231 33.6212Z" fill="#37D5C7"/>
<path d="M14.672 19.2816C14.1769 18.4317 14.4707 17.3449 15.3281 16.8542L25.0314 11.3009C25.8888 10.8102 26.9851 11.1014 27.4803 11.9513C27.9752 12.8013 27.6816 13.8881 26.8241 14.3788L17.1209 19.9321C16.2634 20.4228 15.167 20.1316 14.672 19.2816Z" fill="#37D5C7"/>
<path d="M0.311458 27.4994C-0.18358 26.6494 0.110198 25.5626 0.967628 25.0718L11.4471 19.0743C12.3045 18.5836 13.401 18.8748 13.896 19.7248C14.391 20.5747 14.0973 21.6616 13.2398 22.1522L2.76032 28.1498C1.90289 28.6404 0.806499 28.3494 0.311458 27.4994Z" fill="#37D5C7"/>
<path d="M16.252 12.2219C15.7569 11.3719 16.0507 10.2851 16.9081 9.79437L18.8488 8.6837C19.7062 8.19296 20.8026 8.48419 21.2976 9.33413C21.7927 10.1841 21.4989 11.2709 20.6415 11.7616L18.7008 12.8723C17.8434 13.363 16.7469 13.0718 16.252 12.2219Z" fill="#37D5C7"/>
<path d="M21.9903 27.4015C21.4952 26.5515 21.789 25.4647 22.6465 24.974L24.5871 23.8634C25.4446 23.3727 26.541 23.6638 27.036 24.5138C27.5311 25.3637 27.2373 26.4506 26.3798 26.9413L24.4392 28.0519C23.5817 28.5427 22.4853 28.2515 21.9903 27.4015Z" fill="#37D5C7"/>
<path d="M5.71758 30.5617C5.22255 29.7118 5.51633 28.6249 6.37375 28.1342L8.3144 27.0236C9.17181 26.5328 10.2682 26.824 10.7632 27.674C11.2583 28.5239 10.9645 29.6108 10.1071 30.1015L8.16642 31.2121C7.309 31.7028 6.2126 31.4116 5.71758 30.5617Z" fill="#37D5C7"/>
<path d="M0.367 15.1554C-0.128038 14.3054 0.165739 13.2187 1.02318 12.7279L2.96382 11.6173C3.82124 11.1266 4.91761 11.4178 5.41268 12.2678C5.90771 13.1177 5.61393 14.2045 4.75651 14.6952L2.81586 15.8059C1.95844 16.2966 0.862035 16.0054 0.367 15.1554Z" fill="#37D5C7"/>
<path d="M0.338497 21.3292C-0.156541 20.4792 0.137236 19.3925 0.994668 18.9018L13.0267 12.0157C13.8841 11.525 14.9804 11.8162 15.4755 12.6661C15.9705 13.5161 15.6768 14.6029 14.8194 15.0937L2.78736 21.9797C1.92993 22.4704 0.833539 22.1791 0.338497 21.3292Z" fill="#37D5C7"/>
<path d="M11.5395 27.2277C11.0444 26.3778 11.3383 25.2909 12.1957 24.8002L24.2277 17.9141C25.085 17.4235 26.1814 17.7147 26.6766 18.5646C27.1715 19.4145 26.8777 20.5013 26.0204 20.9921L13.9884 27.8781C13.1309 28.3688 12.0345 28.0776 11.5395 27.2277Z" fill="#37D5C7"/>
<path fill-rule="evenodd" clip-rule="evenodd" d="M45.9936 18.191C45.0072 17.6097 44.2264 16.8088 43.6548 15.7935L43.6527 15.7898C43.0941 14.7692 42.8192 13.6095 42.8192 12.3207C42.8192 11.0209 43.0773 9.86286 43.6047 8.85717L43.6056 8.85533C44.1452 7.84061 44.887 7.03777 45.8291 6.4543C46.7774 5.86702 47.8645 5.57812 49.0793 5.57812C50.276 5.57812 51.3341 5.85817 52.2392 6.43146C53.1535 6.98572 53.8594 7.76099 54.3539 8.74875C54.8484 9.73628 55.0912 10.8534 55.0912 12.0919C55.0912 12.4172 54.9876 12.711 54.7622 12.9397L54.7558 12.9463L54.7488 12.9526C54.5221 13.1599 54.2373 13.2504 53.9272 13.2504H45.2227C45.3074 13.7486 45.4632 14.2032 45.6882 14.6166C46.0639 15.2795 46.5687 15.7979 47.2055 16.1774C47.8364 16.5532 48.57 16.7461 49.4175 16.7461C49.918 16.7461 50.4207 16.6617 50.9267 16.4907C51.4539 16.3026 51.8535 16.078 52.141 15.8261L52.1479 15.8199C52.3719 15.6338 52.6341 15.536 52.9226 15.5333C53.2074 15.5152 53.4728 15.5905 53.6963 15.7717L53.706 15.7796L53.7152 15.7882C53.9594 16.017 54.1175 16.3004 54.1217 16.6332C54.141 16.9697 54 17.2551 53.7479 17.4689C53.2143 17.9283 52.5452 18.3053 51.7502 18.6059L51.7442 18.6081C50.9456 18.8942 50.1696 19.0403 49.4175 19.0403C48.1475 19.0403 47.0051 18.7614 45.9994 18.1943L45.9936 18.191ZM51.0516 8.40959C50.517 8.05681 49.865 7.87235 49.0793 7.87235C48.2802 7.87235 47.5954 8.0636 47.0115 8.43546C46.4235 8.8103 45.9629 9.33117 45.6294 10.0076C45.4715 10.3354 45.3518 10.6894 45.2712 11.0706H52.7078C52.6359 10.6556 52.5152 10.2697 52.3465 9.9118C52.0429 9.26732 51.6129 8.77062 51.0553 8.41179L51.0516 8.40959Z" fill="#111111"/>
<path d="M59.9981 6.24975L60.0009 6.24806C60.7788 5.78754 61.6373 5.55859 62.5686 5.55859C63.2852 5.55859 63.8843 5.65991 64.3322 5.89642C64.5645 6.01911 64.7599 6.18853 64.8737 6.41991C64.9898 6.65514 65.0009 6.91211 64.9405 7.16675L64.9387 7.17551C64.8636 7.46091 64.7143 7.71857 64.447 7.85726C64.2355 7.97444 63.9908 8.00747 63.7387 7.98926L63.7368 7.98912C63.5437 7.97403 63.3207 7.9589 63.0668 7.94376L63.0613 7.94344L63.0562 7.94298C62.2576 7.87061 61.5617 7.95876 60.9594 8.19495L60.9553 8.19656C60.3677 8.41849 59.906 8.76022 59.5585 9.22018C59.2336 9.67006 59.0654 10.2107 59.0654 10.8593V17.702C59.0654 18.0444 58.97 18.359 58.7368 18.5957C58.5037 18.8324 58.1935 18.9293 57.8562 18.9293C57.5189 18.9293 57.2087 18.8324 56.9755 18.5957C56.7424 18.359 56.647 18.0444 56.647 17.702V6.92312C56.647 6.5808 56.7424 6.26613 56.9755 6.02947C57.2087 5.79282 57.5189 5.69591 57.8562 5.69591C58.1935 5.69591 58.5037 5.79282 58.7368 6.02947C58.97 6.26613 59.0654 6.5808 59.0654 6.92312V6.96646C59.3488 6.69353 59.6599 6.45444 59.9981 6.24975Z" fill="#111111"/>
<path d="M66.9871 18.5956L66.976 18.5829C66.7548 18.336 66.6585 18.0225 66.6585 17.6787V12.1095C66.6585 11.7672 66.7544 11.4525 66.9875 11.2159C67.229 10.9704 67.5424 10.8594 67.8903 10.8594C68.2239 10.8594 68.523 10.971 68.7488 11.2157C68.994 11.449 69.0995 11.7629 69.0995 12.1095V17.6787C69.0995 18.032 68.9903 18.3498 68.7484 18.5952C68.5189 18.8281 68.2193 18.9288 67.8903 18.9288C67.5516 18.9288 67.2428 18.8315 66.9995 18.607L66.9871 18.5956Z" fill="#111111"/>
<path fill-rule="evenodd" clip-rule="evenodd" d="M89.9009 18.1668L89.8967 18.1647C88.9281 17.5681 88.1571 16.7607 87.5871 15.7478L87.5848 15.744C87.0267 14.7247 86.7516 13.5807 86.7516 12.3207C86.7516 11.0444 87.0345 9.89134 87.6097 8.8707L87.6119 8.86698C88.1981 7.85299 88.9935 7.05341 89.9935 6.47306C90.9981 5.8744 92.1276 5.57812 93.3719 5.57812C94.6156 5.57812 95.7382 5.87417 96.729 6.47361C97.729 7.05405 98.5166 7.854 99.088 8.86863C99.6778 9.88804 99.9765 11.0403 99.9926 12.3162V12.3207V17.6987C99.9926 18.0432 99.8792 18.3509 99.641 18.5923L99.6354 18.5983L99.629 18.6041C99.3898 18.8251 99.0907 18.9259 98.7613 18.9259C98.4313 18.9259 98.1318 18.8251 97.8921 18.6041L97.8866 18.5983L97.8801 18.5923C97.6428 18.3509 97.5295 18.0432 97.5295 17.6987V17.2803C97.1677 17.6454 96.758 17.964 96.3013 18.236L96.299 18.237C95.3829 18.7753 94.3437 19.0403 93.1917 19.0403C91.9769 19.0403 90.8769 18.7514 89.9009 18.1668ZM95.5129 16.1563L95.5161 16.1545C96.1525 15.7753 96.6493 15.2577 97.0092 14.5963L97.011 14.5941C97.3848 13.9191 97.5746 13.164 97.5746 12.3207C97.5746 11.4609 97.3843 10.7073 97.0124 10.0501L97.0092 10.045C96.6493 9.38368 96.1525 8.86607 95.5161 8.48682L95.5087 8.4821C94.8926 8.09354 94.1843 7.89523 93.3719 7.89523C92.576 7.89523 91.8654 8.09286 91.2327 8.48389L91.2281 8.48687C90.5903 8.86685 90.0848 9.38597 89.7087 10.0501C89.3368 10.7073 89.147 11.4609 89.147 12.3207C89.147 13.1634 89.3359 13.918 89.7092 14.5927C90.0857 15.2561 90.5903 15.7749 91.2281 16.1545C91.8613 16.532 92.5732 16.7232 93.3719 16.7232C94.1866 16.7232 94.8967 16.5314 95.5129 16.1563Z" fill="#111111"/>
<path d="M34.8594 18.1244L34.86 18.1258C34.9683 18.3636 35.115 18.5668 35.3112 18.7107C35.5115 18.8575 35.7428 18.9271 35.991 18.9271C36.2479 18.9271 36.4885 18.8609 36.6973 18.7159C36.9038 18.5725 37.0574 18.3669 37.1677 18.1244L42.1035 7.32758C42.2368 7.0535 42.2457 6.76126 42.1388 6.47622C42.0309 6.17288 41.8233 5.94512 41.5375 5.80015L41.5283 5.79547L41.5188 5.7913C41.2281 5.66485 40.9234 5.65517 40.6218 5.75548C40.3094 5.8484 40.082 6.06152 39.953 6.36418L35.9967 15.179L31.977 6.34913L31.972 6.3395C31.8294 6.07079 31.6163 5.87225 31.3372 5.76337C31.039 5.64692 30.7343 5.67714 30.4487 5.82088C30.1593 5.95902 29.9356 6.17302 29.8222 6.47223C29.7118 6.76351 29.7248 7.06212 29.8536 7.34542L34.8594 18.1244Z" fill="#111111"/>
<path fill-rule="evenodd" clip-rule="evenodd" d="M72.3456 15.7539C72.9322 16.7677 73.7272 17.5743 74.7258 18.1697L74.7295 18.1718C75.7345 18.7547 76.8626 19.0428 78.1064 19.0428C79.3345 19.0428 80.4484 18.7544 81.4387 18.1713C82.4382 17.5913 83.2267 16.7993 83.7995 15.7989C84.3875 14.7822 84.6954 13.6469 84.7272 12.401V1.58995C84.7272 1.24052 84.6193 0.924271 84.3696 0.690417C84.1332 0.453001 83.8322 0.339844 83.4954 0.339844C83.1585 0.339844 82.8576 0.453008 82.6202 0.690431C82.3709 0.924285 82.2636 1.24053 82.2636 1.58995V7.3429C81.8488 6.9265 81.3659 6.57404 80.8184 6.28561C79.9516 5.81349 78.9848 5.58055 77.9258 5.58055C76.7097 5.58055 75.6092 5.8777 74.6332 6.47805C73.6631 7.0596 72.8912 7.86 72.3212 8.87313L72.3189 8.87684C71.7608 9.89615 71.4852 11.0402 71.4852 12.3003C71.4852 13.5765 71.7691 14.7296 72.3438 15.7502L72.3456 15.7539ZM81.7465 10.0525C82.1193 10.7107 82.3087 11.4569 82.3087 12.3003C82.3087 13.16 82.1184 13.9136 81.7465 14.5709L81.7438 14.5759C81.3829 15.238 80.8852 15.7644 80.2461 16.1592C79.6304 16.534 78.9207 16.7257 78.1064 16.7257C77.3087 16.7257 76.5977 16.535 75.9645 16.1584C75.3253 15.7629 74.8193 15.2352 74.4433 14.5709C74.0709 13.9136 73.8811 13.16 73.8811 12.3003C73.8811 11.4569 74.0705 10.7107 74.4433 10.0525L74.4447 10.0497C74.8212 9.37061 75.3262 8.84524 75.9622 8.46641C76.5958 8.08891 77.3073 7.89766 78.1064 7.89766C78.9207 7.89766 79.6313 8.08946 80.247 8.46467L80.2507 8.46641C80.8848 8.84455 81.3815 9.3684 81.7424 10.0448L81.7465 10.0525Z" fill="#111111"/>
<path d="M66.9871 9.47776L66.9756 9.46515C66.7544 9.21822 66.6585 8.90474 66.6585 8.56091V7.19932C66.6585 6.85704 66.7544 6.54237 66.9875 6.30571C67.229 6.06021 67.5424 5.94922 67.8903 5.94922C68.2239 5.94922 68.523 6.0608 68.7484 6.30558C68.994 6.53884 69.0995 6.85277 69.0995 7.19932V8.56091C69.0995 8.91424 68.9903 9.23198 68.7484 9.47739C68.5189 9.71029 68.2193 9.811 67.8903 9.811C67.5516 9.811 67.2428 9.71368 66.9995 9.48918L66.9871 9.47776Z" fill="#37D5C7"/>
<path d="M35.882 33.36C35.6461 33.36 35.4691 33.2329 35.3512 32.9785L32.0774 26.0659C32.0184 25.9388 32.0136 25.8115 32.0627 25.6844C32.1118 25.5572 32.2101 25.4593 32.3576 25.3908C32.4953 25.3224 32.628 25.3126 32.7558 25.3615C32.8836 25.4104 32.9819 25.4985 33.0507 25.6257L36.1917 32.3914H35.5871L38.6839 25.6257C38.7429 25.4887 38.8412 25.4006 38.9788 25.3615C39.1263 25.3126 39.2689 25.3175 39.4065 25.3762C39.5441 25.4446 39.6375 25.5474 39.6866 25.6844C39.7358 25.8115 39.7309 25.9339 39.6719 26.0513L36.4424 32.9785C36.3244 33.2329 36.1377 33.36 35.882 33.36Z" fill="#111111"/>
<path d="M44.5413 33.4364C43.7843 33.4364 43.106 33.2603 42.5062 32.9081C41.9066 32.5461 41.4297 32.0568 41.0758 31.4404C40.7318 30.824 40.5597 30.1293 40.5597 29.3564C40.5597 28.5736 40.7366 27.8741 41.0906 27.2577C41.4543 26.6413 41.9459 26.157 42.5652 25.8047C43.1846 25.4427 43.8826 25.2617 44.6592 25.2617C45.4359 25.2617 46.129 25.4427 46.7387 25.8047C47.3581 26.157 47.8447 26.6413 48.1986 27.2577C48.5622 27.8741 48.7489 28.5736 48.759 29.3564L48.3019 29.7086C48.3019 30.4131 48.1346 31.0491 47.8005 31.6165C47.476 32.1742 47.0286 32.6194 46.4585 32.9521C45.8979 33.275 45.259 33.4364 44.5413 33.4364ZM44.6592 32.4091C45.2295 32.4091 45.7357 32.277 46.1784 32.0128C46.6304 31.7486 46.9843 31.3866 47.2401 30.9268C47.5055 30.4571 47.6383 29.9337 47.6383 29.3564C47.6383 28.7693 47.5055 28.2459 47.2401 27.786C46.9843 27.3262 46.6304 26.9642 46.1784 26.7C45.7357 26.4261 45.2295 26.2891 44.6592 26.2891C44.0989 26.2891 43.5926 26.4261 43.1403 26.7C42.6881 26.9642 42.3293 27.3262 42.0638 27.786C41.7984 28.2459 41.6657 28.7693 41.6657 29.3564C41.6657 29.9337 41.7984 30.4571 42.0638 30.9268C42.3293 31.3866 42.6881 31.7486 43.1403 32.0128C43.5926 32.277 44.0989 32.4091 44.6592 32.4091ZM48.1839 33.363C48.0166 33.363 47.8788 33.3141 47.771 33.2163C47.6627 33.1086 47.6088 32.9717 47.6088 32.8053V30.2957L47.889 29.1363L48.759 29.3564V32.8053C48.759 32.9717 48.7046 33.1086 48.5968 33.2163C48.4885 33.3141 48.3507 33.363 48.1839 33.363Z" fill="#111111"/>
<path d="M54.477 33.448C53.7788 33.448 53.1544 33.3061 52.6042 33.0224C52.0535 32.7289 51.6161 32.3033 51.2917 31.7456C50.977 31.1879 50.8198 30.5078 50.8198 29.7056V25.8897C50.8198 25.7332 50.8737 25.6011 50.982 25.4935C51.0899 25.3858 51.2226 25.332 51.3802 25.332C51.547 25.332 51.6848 25.3858 51.7931 25.4935C51.9009 25.6011 51.9553 25.7332 51.9553 25.8897V29.7056C51.9553 30.3122 52.0682 30.8112 52.2945 31.2025C52.5304 31.5939 52.8447 31.8874 53.2383 32.0831C53.641 32.2788 54.0936 32.3766 54.5949 32.3766C55.0765 32.3766 55.5092 32.2837 55.8926 32.0978C56.2857 31.9119 56.5954 31.6575 56.8217 31.3346C57.0475 31.0117 57.1608 30.6448 57.1608 30.2339H57.9719C57.9424 30.8503 57.7701 31.4031 57.4558 31.8923C57.1507 32.3717 56.7378 32.7533 56.2171 33.0371C55.6959 33.311 55.1157 33.448 54.477 33.448ZM57.7212 33.3599C57.5539 33.3599 57.4161 33.311 57.3083 33.2132C57.2097 33.1055 57.1608 32.9637 57.1608 32.7876V25.8897C57.1608 25.7234 57.2097 25.5913 57.3083 25.4935C57.4161 25.3858 57.5539 25.332 57.7212 25.332C57.888 25.332 58.0258 25.3858 58.1341 25.4935C58.2419 25.5913 58.2963 25.7234 58.2963 25.8897V32.7876C58.2963 32.9637 58.2419 33.1055 58.1341 33.2132C58.0258 33.311 57.888 33.3599 57.7212 33.3599Z" fill="#111111"/>
<path d="M62.6871 33.3606C62.294 33.3606 61.9401 33.253 61.6254 33.0377C61.3208 32.8225 61.0797 32.524 60.9028 32.1425C60.7355 31.7609 60.6521 31.3206 60.6521 30.8216V22.4561C60.6521 22.2898 60.7014 22.1577 60.7996 22.0599C60.9079 21.9522 61.0452 21.8984 61.2125 21.8984C61.3797 21.8984 61.5125 21.9522 61.6106 22.0599C61.7189 22.1577 61.7728 22.2898 61.7728 22.4561V30.8216C61.7728 31.2423 61.8562 31.5848 62.0235 31.8489C62.2005 32.1131 62.4217 32.2452 62.6871 32.2452H63.0558C63.2032 32.2452 63.3212 32.299 63.4097 32.4066C63.4982 32.5045 63.5424 32.6365 63.5424 32.8029C63.5424 32.9692 63.4784 33.1062 63.3507 33.2138C63.2327 33.3117 63.0756 33.3606 62.8788 33.3606H62.6871Z" fill="#111111"/>
<path d="M68.2646 33.3589C67.7438 33.3589 67.2765 33.2366 66.8636 32.992C66.4609 32.7474 66.1411 32.4147 65.9051 31.994C65.6692 31.5635 65.5512 31.0743 65.5512 30.5264V23.3497C65.5512 23.1834 65.6005 23.0464 65.6987 22.9388C65.8069 22.8311 65.9447 22.7773 66.1116 22.7773C66.2788 22.7773 66.4166 22.8311 66.5245 22.9388C66.6328 23.0464 66.6867 23.1834 66.6867 23.3497V30.5264C66.6867 31.0254 66.8341 31.4363 67.1291 31.7592C67.424 32.0723 67.8028 32.2289 68.2646 32.2289H68.6627C68.8203 32.2289 68.948 32.2827 69.0461 32.3903C69.1447 32.4979 69.1936 32.6349 69.1936 32.8012C69.1936 32.9676 69.1346 33.1045 69.0166 33.2122C68.8987 33.31 68.7512 33.3589 68.5742 33.3589H68.2646ZM64.5927 26.6078C64.4452 26.6078 64.3226 26.5638 64.224 26.4758C64.1258 26.3779 64.0765 26.2605 64.0765 26.1235C64.0765 25.9768 64.1258 25.8594 64.224 25.7713C64.3226 25.6735 64.4452 25.6245 64.5927 25.6245H68.353C68.5005 25.6245 68.6235 25.6735 68.7217 25.7713C68.8203 25.8594 68.8692 25.9768 68.8692 26.1235C68.8692 26.2605 68.8203 26.3779 68.7217 26.4758C68.6235 26.5638 68.5005 26.6078 68.353 26.6078H64.5927Z" fill="#111111"/>
</g>
<defs>
<clipPath id="clip0">
<rect width="100" height="36.6906" fill="white" transform="translate(0 0.339844)"/>
</clipPath>
</defs>
</svg>
